# xmcd CD database file
#
# Track frame offsets:
#	150
#	15052
#	28176
#	41914
#	55874
#	69256
#	83833
#	96432
#	108844
#	121777
#	133588
#	144362
#	157891
#	172054
#	182282
#	196789
#	211111
#	225466
#	240341
#	251791
#	263318
#	275820
#	288713
#	299330
#
# Disc length: 4168 seconds
#
# Revision: 0
# Processed by: cddbd v1.5.1PL2 Copyright (c) Steve Scherf et al.
# Submitted via: CDex 1.51
#
DISCID=45104618
DTITLE=Miles Davis - Boplicity
DYEAR=2005
DGENRE=Jazz
TTITLE0=Now's The Time
TTITLE1=Yardbird Suite
TTITLE2=Night In Tunisia
TTITLE3=Out Of Nowhere
TTITLE4=Crazeology
TTITLE5=My Old Flame
TTITLE6=Don't Blame Me
TTITLE7=Half Nelson
TTITLE8=Little Willie Leaps In
TTITLE9=Milestones
TTITLE10=Sippin' At Bells
TTITLE11=Boplicity
TTITLE12=Godchild
TTITLE13=Israel
TTITLE14=Rouge
TTITLE15=Venus De Milo
TTITLE16=Jeru
TTITLE17=Moon Dreams
TTITLE18=Move
TTITLE19=Budo
TTITLE20=Deception
TTITLE21=Down
TTITLE22=Morpheus
TTITLE23=Whispering
EXTD=YEAR: 2005
EXTT0=
EXTT1=
EXTT2=
EXTT3=
EXTT4=
EXTT5=
EXTT6=
EXTT7=
EXTT8=
EXTT9=
EXTT10=
EXTT11=
EXTT12=
EXTT13=
EXTT14=
EXTT15=
EXTT16=
EXTT17=
EXTT18=
EXTT19=
EXTT20=
EXTT21=
EXTT22=
EXTT23=
PLAYORDER=
